<?xml version="1.0" encoding="UTF-8" standalone="no"?>
<!-- Created with Inkscape (http://www.inkscape.org/) -->

<svg
   width="128"
   height="128"
   viewBox="0 0 33.866666 33.866666"
   version="1.1"
   id="svg1"
   inkscape:version="1.4.2 (ebf0e940d0, 2025-05-08)"
   sodipodi:docname="icon.svg"
   xml:space="preserve"
   inkscape:export-filename="../img/icon-64.png"
   inkscape:export-xdpi="48"
   inkscape:export-ydpi="48"
   xmlns:inkscape="http://www.inkscape.org/namespaces/inkscape"
   xmlns:sodipodi="http://sodipodi.sourceforge.net/DTD/sodipodi-0.dtd"
   xmlns="http://www.w3.org/2000/svg"
   xmlns:svg="http://www.w3.org/2000/svg"><sodipodi:namedview
     id="namedview1"
     pagecolor="#505050"
     bordercolor="#ffffff"
     borderopacity="1"
     inkscape:showpageshadow="0"
     inkscape:pageopacity="0"
     inkscape:pagecheckerboard="1"
     inkscape:deskcolor="#505050"
     inkscape:document-units="mm"
     inkscape:zoom="2.7056898"
     inkscape:cx="13.49009"
     inkscape:cy="45.644552"
     inkscape:window-width="1920"
     inkscape:window-height="1008"
     inkscape:window-x="0"
     inkscape:window-y="0"
     inkscape:window-maximized="1"
     inkscape:current-layer="layer1" /><defs
     id="defs1" /><g
     inkscape:label="Calque 1"
     inkscape:groupmode="layer"
     id="layer1"><rect
       style="fill:#ffffff;fill-opacity:1;stroke:#000000;stroke-width:1.15664;stroke-linecap:butt;stroke-linejoin:bevel;stroke-dasharray:none;stroke-opacity:1;paint-order:normal"
       id="rect2"
       width="18.809069"
       height="14.455003"
       x="14.363881"
       y="1.5402695"
       ry="5.1625009" /><g
       id="g10"><path
         style="fill:#f2cfa4;fill-opacity:1;stroke:#000000;stroke-width:3;stroke-linecap:butt;stroke-linejoin:bevel;stroke-dasharray:none;stroke-opacity:1;paint-order:normal"
         d="m 63.459525,110.42042 c -0.6575,-4.26695 -0.334064,-0.24213 -1.226798,-5.12352 -2.519124,4.09868 -3.674453,6.11961 -6.213667,8.28494 -0.39764,-4.82296 -0.108315,-11.19795 -0.108315,-11.19795 -0.223029,-1.61084 -0.636557,-11.874221 -0.455614,-21.793089 0.180941,-9.918868 -0.007,-20.150519 -0.0044,-21.359381 0,0 -0.164466,-2.353255 -0.333342,-7.833652 4.001556,9.172476 7.932578,5.248203 7.641999,11.435317 6.723129,-12.478999 11.345542,-17.543136 24.387055,-15.942637 4.325829,0.53088 7.373292,1.868044 10.334109,5.065929 6.181288,6.676219 6.091838,12.629207 5.765318,20.444542 -2.82298,18.638978 -4.369161,18.148248 -12.929517,28.591161 -5.259303,9.14109 -8.540869,16.27809 -17.314291,15.48995 -5.724626,-0.35347 -7.097525,-2.87253 -9.542533,-6.06161 z"
         id="path3"
         transform="scale(0.26458333)"
         sodipodi:nodetypes="ccccscccssccscc" /><g
         id="g5"
         style="stroke:#000000;stroke-opacity:1;stroke-width:0.79375;stroke-dasharray:none;fill:#000000;fill-opacity:0"><path
           style="fill:#000000;fill-opacity:0;stroke:#000000;stroke-width:0.79375;stroke-linecap:butt;stroke-linejoin:bevel;stroke-dasharray:none;stroke-opacity:1;paint-order:normal"
           d="m 18.25128,22.366765 c 0,0 0.688836,0.644162 0.685914,1.222716 -0.0029,0.578555 -0.902167,1.000887 -0.864848,1.550762 0.03732,0.549875 0.535982,1.016676 1.01396,1.01396 1.237198,-0.007 2.046022,-1.513037 2.594544,-2.654189 0.838424,-3.116239 -0.722869,-4.808807 -2.862948,-4.831222 0.205116,-2.811146 1.719861,-3.582045 4.026018,-3.489215 2.082605,0.5275 3.327694,4.242676 1.78934,6.381984"
           id="path4"
           sodipodi:nodetypes="cczscccc" /><path
           style="fill:#000000;fill-opacity:0;stroke:#000000;stroke-width:0.79375;stroke-linecap:butt;stroke-linejoin:bevel;stroke-dasharray:none;stroke-opacity:1;paint-order:normal"
           d="m 18.82665,18.601118 c 0,0 -0.08538,0.913533 0.06783,1.727317 1.001019,0.831721 1.30743,1.433956 1.30743,1.433956"
           id="path5"
           sodipodi:nodetypes="ccc" /></g></g><text
       xml:space="preserve"
       style="font-size:7.24633px;text-align:start;writing-mode:lr-tb;direction:ltr;text-anchor:start;fill:#000000;fill-opacity:1;stroke:#000000;stroke-width:0.26458333;stroke-linecap:butt;stroke-linejoin:bevel;stroke-dasharray:none;stroke-opacity:1;paint-order:normal"
       x="17.52614"
       y="9.1899958"
       id="text6"><tspan
         sodipodi:role="line"
         id="tspan6"
         style="fill:#000000;fill-opacity:1;stroke:#000000;stroke-width:0.26458333;stroke-dasharray:none;stroke-opacity:1"
         x="17.52614"
         y="9.1899958">A</tspan></text><text
       xml:space="preserve"
       style="font-size:7.39995px;text-align:start;writing-mode:lr-tb;direction:ltr;text-anchor:start;fill:#000000;fill-opacity:1;stroke:#000000;stroke-width:0.264583;stroke-linecap:butt;stroke-linejoin:bevel;stroke-dasharray:none;stroke-opacity:1;paint-order:normal"
       x="26.584795"
       y="14.250071"
       id="text7"><tspan
         sodipodi:role="line"
         id="tspan7"
         style="stroke-width:0.264583;stroke-dasharray:none"
         x="26.584795"
         y="14.250071">a</tspan></text><g
       id="g9"><path
         style="fill:none;fill-opacity:1;stroke:#000000;stroke-width:0.661458;stroke-linecap:butt;stroke-linejoin:bevel;stroke-dasharray:none;stroke-opacity:1;paint-order:normal"
         d="m 25.466146,4.6302083 4.564062,-10e-8 c -0.580105,-0.00972 -0.829556,0.037094 -0.76422,0.4977847 -0.418178,0.8332208 -1.4886,2.8253748 -3.502186,3.3717465"
         id="path7"
         sodipodi:nodetypes="cccc" /><path
         style="fill:none;fill-opacity:1;stroke:#000000;stroke-width:0.66145833;stroke-linecap:butt;stroke-linejoin:bevel;stroke-dasharray:none;stroke-opacity:1;paint-order:normal"
         d="m 26.722916,6.1515625 c 0.450572,1.006866 1.69109,1.7809438 3.108854,2.348177"
         id="path8"
         sodipodi:nodetypes="cc" /><path
         style="fill:none;fill-opacity:1;stroke:#000000;stroke-width:0.731924;stroke-linecap:butt;stroke-linejoin:bevel;stroke-dasharray:none;stroke-opacity:1;paint-order:normal"
         d="M 27.863786,4.6352226 27.847541,3.6664711"
         id="path9" /></g><g
       id="g11"><rect
         style="fill:#ff0000;fill-opacity:1;stroke:#000000;stroke-width:1.05833;stroke-linecap:butt;stroke-linejoin:bevel;stroke-dasharray:none;stroke-opacity:1;paint-order:normal"
         id="rect1"
         width="14.97082"
         height="21.889606"
         x="0.51044047"
         y="11.339415"
         ry="4.9206882" /><path
         sodipodi:type="star"
         style="fill:#ffffff;fill-opacity:1;stroke:#ffffff;stroke-width:0.79375;stroke-linecap:butt;stroke-linejoin:bevel;stroke-dasharray:none;stroke-opacity:1;paint-order:normal"
         id="path6"
         inkscape:flatsided="false"
         sodipodi:sides="3"
         sodipodi:cx="5.051394"
         sodipodi:cy="25.186811"
         sodipodi:r1="4.0694475"
         sodipodi:r2="2.0347238"
         sodipodi:arg1="0.011493747"
         sodipodi:arg2="1.0586913"
         inkscape:rounded="0"
         inkscape:randomized="0"
         d="m 9.1205727,25.233584 -3.072137,1.726927 -3.072137,1.726927 0.040506,-3.524013 0.040506,-3.524012 3.0316311,1.797085 z"
         inkscape:transform-center-x="-1.0334121"
         inkscape:transform-center-y="-0.02423852"
         transform="matrix(1.0364782,0,0,1.0364782,2.0391008,-4.0116069)" /></g></g></svg>
